<svg width="333" height="235" viewBox="0 0 333 235" fill="none" xmlns="http://www.w3.org/2000/svg">
<path d="M299.7 1.23522e-05L254.647 78.3333C276.194 78.3333 294.64 86.0035 309.984 101.344C325.328 116.684 333 135.125 333 156.667C333 178.208 325.328 196.649 309.984 211.99C294.64 227.33 276.194 235 254.647 235C233.1 235 214.654 227.33 199.31 211.99C183.966 196.649 176.294 178.208 176.294 156.667C176.294 149.16 177.192 142.224 178.987 135.859C180.783 129.495 183.476 123.375 187.068 117.5L254.647 8.41966e-06L299.7 1.23522e-05ZM123.406 -3.03588e-06L78.3529 78.3333C99.9 78.3333 118.346 86.0035 133.69 101.344C149.034 116.684 156.706 135.125 156.706 156.667C156.706 178.208 149.034 196.649 133.69 211.99C118.346 227.33 99.9 235 78.3529 235C56.8058 235 38.3603 227.33 23.0161 211.99C7.67203 196.649 -2.55449e-05 178.208 -2.36587e-05 156.667C-2.30014e-05 149.16 0.897713 142.224 2.69331 135.859C4.4889 129.495 7.18232 123.375 10.7735 117.5L78.3529 -6.96837e-06L123.406 -3.03588e-06Z" fill="#1B0B01"/>
</svg>
